<svg xmlns="http://www.w3.org/2000/svg" xmlns:xlink="http://www.w3.org/1999/xlink" width="90" zoomAndPan="magnify" viewBox="0 0 67.5 30.000001" height="40" preserveAspectRatio="xMidYMid meet" version="1.0"><defs><g/><clipPath id="6a0167e831"><path d="M 2.046875 1.820312 L 33.488281 1.820312 L 33.488281 22 L 2.046875 22 Z M 2.046875 1.820312 " clip-rule="nonzero"/></clipPath><clipPath id="07b7a3adbb"><path d="M 12 20 L 24 20 L 24 27.410156 L 12 27.410156 Z M 12 20 " clip-rule="nonzero"/></clipPath></defs><g clip-path="url(#6a0167e831)"><path fill="#000000" d="M 16.347656 4.644531 C 12.421875 4.644531 9.242188 7.8125 9.242188 11.714844 C 9.242188 12.496094 8.605469 13.128906 7.820312 13.128906 C 6.25 13.128906 4.976562 14.394531 4.976562 15.957031 C 4.976562 17.519531 6.25 18.785156 7.820312 18.785156 L 9.597656 18.785156 L 9.597656 21.613281 L 7.820312 21.613281 C 4.679688 21.613281 2.132812 19.082031 2.132812 15.957031 C 2.132812 13.292969 3.984375 11.058594 6.476562 10.460938 C 7.097656 5.585938 11.28125 1.820312 16.347656 1.820312 C 20.339844 1.820312 23.78125 4.160156 25.367188 7.535156 C 25.671875 7.496094 25.980469 7.472656 26.296875 7.472656 C 30.21875 7.472656 33.402344 10.640625 33.402344 14.542969 C 33.402344 16.367188 32.867188 18.121094 31.765625 19.445312 C 30.644531 20.792969 28.996094 21.613281 27.007812 21.613281 L 25.941406 21.613281 L 25.941406 18.785156 L 27.007812 18.785156 C 28.15625 18.785156 28.996094 18.339844 29.574219 17.640625 C 30.175781 16.917969 30.558594 15.84375 30.558594 14.542969 C 30.558594 12.199219 28.648438 10.300781 26.296875 10.300781 C 25.820312 10.300781 25.363281 10.378906 24.9375 10.519531 C 24.578125 10.640625 24.179688 10.613281 23.839844 10.441406 C 23.5 10.265625 23.246094 9.964844 23.128906 9.601562 C 22.226562 6.730469 19.53125 4.644531 16.347656 4.644531 Z M 16.347656 4.644531 " fill-opacity="1" fill-rule="evenodd"/></g><path fill="#000000" d="M 16.347656 15.957031 L 19.1875 15.957031 L 19.1875 25.148438 L 16.347656 25.148438 Z M 16.347656 15.957031 " fill-opacity="1" fill-rule="evenodd"/><g clip-path="url(#07b7a3adbb)"><path fill="#000000" d="M 16.761719 26.855469 L 12.5 22.613281 L 14.507812 20.613281 L 17.769531 23.855469 L 21.027344 20.613281 L 23.035156 22.613281 L 18.773438 26.855469 C 18.21875 27.40625 17.316406 27.40625 16.761719 26.855469 Z M 16.761719 26.855469 " fill-opacity="1" fill-rule="evenodd"/></g><g fill="#000000" fill-opacity="1"><g transform="translate(33.749996, 12.045542)"><g><path d="M 4.21875 -2.25 C 4.21875 -1.5 4.003906 -0.9375 3.578125 -0.5625 C 3.148438 -0.1875 2.5625 0 1.8125 0 L 0.5625 0 L 0.5625 -4.421875 L 1.9375 -4.421875 C 2.40625 -4.421875 2.804688 -4.335938 3.140625 -4.171875 C 3.484375 -4.003906 3.75 -3.757812 3.9375 -3.4375 C 4.125 -3.113281 4.21875 -2.71875 4.21875 -2.25 Z M 3.25 -2.234375 C 3.25 -2.710938 3.140625 -3.066406 2.921875 -3.296875 C 2.710938 -3.535156 2.40625 -3.65625 2 -3.65625 L 1.484375 -3.65625 L 1.484375 -0.765625 L 1.890625 -0.765625 C 2.796875 -0.765625 3.25 -1.253906 3.25 -2.234375 Z M 3.25 -2.234375 "/></g></g></g><g fill="#000000" fill-opacity="1"><g transform="translate(38.328764, 12.045542)"><g><path d="M 3.546875 -1.703125 C 3.546875 -1.140625 3.398438 -0.703125 3.109375 -0.390625 C 2.816406 -0.0859375 2.414062 0.0625 1.90625 0.0625 C 1.59375 0.0625 1.3125 -0.00390625 1.0625 -0.140625 C 0.820312 -0.273438 0.628906 -0.472656 0.484375 -0.734375 C 0.347656 -0.992188 0.28125 -1.316406 0.28125 -1.703125 C 0.28125 -2.253906 0.425781 -2.679688 0.71875 -2.984375 C 1.007812 -3.285156 1.410156 -3.4375 1.921875 -3.4375 C 2.242188 -3.4375 2.523438 -3.367188 2.765625 -3.234375 C 3.003906 -3.097656 3.191406 -2.898438 3.328125 -2.640625 C 3.472656 -2.378906 3.546875 -2.066406 3.546875 -1.703125 Z M 1.21875 -1.703125 C 1.21875 -1.359375 1.269531 -1.101562 1.375 -0.9375 C 1.488281 -0.769531 1.671875 -0.6875 1.921875 -0.6875 C 2.160156 -0.6875 2.332031 -0.769531 2.4375 -0.9375 C 2.550781 -1.101562 2.609375 -1.359375 2.609375 -1.703125 C 2.609375 -2.035156 2.550781 -2.285156 2.4375 -2.453125 C 2.332031 -2.617188 2.15625 -2.703125 1.90625 -2.703125 C 1.664062 -2.703125 1.488281 -2.617188 1.375 -2.453125 C 1.269531 -2.285156 1.21875 -2.035156 1.21875 -1.703125 Z M 1.21875 -1.703125 "/></g></g></g><g fill="#000000" fill-opacity="1"><g transform="translate(42.158841, 12.045542)"><g><path d="M 3.265625 0 L 3 -1.1875 C 2.976562 -1.25 2.953125 -1.347656 2.921875 -1.484375 C 2.898438 -1.628906 2.867188 -1.78125 2.828125 -1.9375 C 2.785156 -2.09375 2.75 -2.238281 2.71875 -2.375 C 2.6875 -2.507812 2.664062 -2.609375 2.65625 -2.671875 L 2.625 -2.671875 C 2.613281 -2.609375 2.59375 -2.507812 2.5625 -2.375 C 2.53125 -2.238281 2.492188 -2.09375 2.453125 -1.9375 C 2.421875 -1.78125 2.390625 -1.628906 2.359375 -1.484375 C 2.328125 -1.347656 2.300781 -1.242188 2.28125 -1.171875 L 2.015625 0 L 1.015625 0 L 0.0625 -3.375 L 0.984375 -3.375 L 1.375 -1.875 C 1.394531 -1.769531 1.414062 -1.644531 1.4375 -1.5 C 1.46875 -1.363281 1.488281 -1.226562 1.5 -1.09375 C 1.519531 -0.957031 1.535156 -0.847656 1.546875 -0.765625 L 1.578125 -0.765625 C 1.578125 -0.828125 1.582031 -0.90625 1.59375 -1 C 1.613281 -1.101562 1.628906 -1.203125 1.640625 -1.296875 C 1.660156 -1.398438 1.675781 -1.492188 1.6875 -1.578125 C 1.707031 -1.660156 1.722656 -1.71875 1.734375 -1.75 L 2.140625 -3.375 L 3.15625 -3.375 L 3.5625 -1.75 C 3.570312 -1.695312 3.585938 -1.601562 3.609375 -1.46875 C 3.640625 -1.34375 3.660156 -1.210938 3.671875 -1.078125 C 3.691406 -0.953125 3.703125 -0.847656 3.703125 -0.765625 L 3.734375 -0.765625 C 3.742188 -0.835938 3.757812 -0.941406 3.78125 -1.078125 C 3.800781 -1.210938 3.820312 -1.351562 3.84375 -1.5 C 3.875 -1.644531 3.898438 -1.769531 3.921875 -1.875 L 4.328125 -3.375 L 5.234375 -3.375 L 4.265625 0 Z M 3.265625 0 "/></g></g></g><g fill="#000000" fill-opacity="1"><g transform="translate(47.455362, 12.045542)"><g><path d="M 2.40625 -3.4375 C 2.757812 -3.4375 3.046875 -3.335938 3.265625 -3.140625 C 3.484375 -2.953125 3.59375 -2.640625 3.59375 -2.203125 L 3.59375 0 L 2.671875 0 L 2.671875 -1.96875 C 2.671875 -2.21875 2.628906 -2.398438 2.546875 -2.515625 C 2.460938 -2.640625 2.328125 -2.703125 2.140625 -2.703125 C 1.859375 -2.703125 1.664062 -2.601562 1.5625 -2.40625 C 1.457031 -2.21875 1.40625 -1.945312 1.40625 -1.59375 L 1.40625 0 L 0.484375 0 L 0.484375 -3.375 L 1.1875 -3.375 L 1.3125 -2.9375 L 1.359375 -2.9375 C 1.460938 -3.113281 1.609375 -3.238281 1.796875 -3.3125 C 1.984375 -3.394531 2.1875 -3.4375 2.40625 -3.4375 Z M 2.40625 -3.4375 "/></g></g></g><g fill="#000000" fill-opacity="1"><g transform="translate(51.52056, 12.045542)"><g><path d="M 1.40625 0 L 0.484375 0 L 0.484375 -4.703125 L 1.40625 -4.703125 Z M 1.40625 0 "/></g></g></g><g fill="#000000" fill-opacity="1"><g transform="translate(53.407751, 12.045542)"><g><path d="M 3.546875 -1.703125 C 3.546875 -1.140625 3.398438 -0.703125 3.109375 -0.390625 C 2.816406 -0.0859375 2.414062 0.0625 1.90625 0.0625 C 1.59375 0.0625 1.3125 -0.00390625 1.0625 -0.140625 C 0.820312 -0.273438 0.628906 -0.472656 0.484375 -0.734375 C 0.347656 -0.992188 0.28125 -1.316406 0.28125 -1.703125 C 0.28125 -2.253906 0.425781 -2.679688 0.71875 -2.984375 C 1.007812 -3.285156 1.410156 -3.4375 1.921875 -3.4375 C 2.242188 -3.4375 2.523438 -3.367188 2.765625 -3.234375 C 3.003906 -3.097656 3.191406 -2.898438 3.328125 -2.640625 C 3.472656 -2.378906 3.546875 -2.066406 3.546875 -1.703125 Z M 1.21875 -1.703125 C 1.21875 -1.359375 1.269531 -1.101562 1.375 -0.9375 C 1.488281 -0.769531 1.671875 -0.6875 1.921875 -0.6875 C 2.160156 -0.6875 2.332031 -0.769531 2.4375 -0.9375 C 2.550781 -1.101562 2.609375 -1.359375 2.609375 -1.703125 C 2.609375 -2.035156 2.550781 -2.285156 2.4375 -2.453125 C 2.332031 -2.617188 2.15625 -2.703125 1.90625 -2.703125 C 1.664062 -2.703125 1.488281 -2.617188 1.375 -2.453125 C 1.269531 -2.285156 1.21875 -2.035156 1.21875 -1.703125 Z M 1.21875 -1.703125 "/></g></g></g><g fill="#000000" fill-opacity="1"><g transform="translate(57.237828, 12.045542)"><g><path d="M 1.875 -3.453125 C 2.320312 -3.453125 2.664062 -3.351562 2.90625 -3.15625 C 3.144531 -2.957031 3.265625 -2.65625 3.265625 -2.25 L 3.265625 0 L 2.625 0 L 2.453125 -0.453125 L 2.421875 -0.453125 C 2.273438 -0.273438 2.117188 -0.144531 1.953125 -0.0625 C 1.796875 0.0195312 1.582031 0.0625 1.3125 0.0625 C 1.007812 0.0625 0.757812 -0.0195312 0.5625 -0.1875 C 0.363281 -0.363281 0.265625 -0.640625 0.265625 -1.015625 C 0.265625 -1.367188 0.390625 -1.628906 0.640625 -1.796875 C 0.890625 -1.960938 1.265625 -2.054688 1.765625 -2.078125 L 2.359375 -2.109375 L 2.359375 -2.25 C 2.359375 -2.425781 2.3125 -2.554688 2.21875 -2.640625 C 2.125 -2.722656 1.992188 -2.765625 1.828125 -2.765625 C 1.660156 -2.765625 1.5 -2.738281 1.34375 -2.6875 C 1.1875 -2.644531 1.03125 -2.585938 0.875 -2.515625 L 0.578125 -3.140625 C 0.753906 -3.234375 0.953125 -3.304688 1.171875 -3.359375 C 1.398438 -3.421875 1.632812 -3.453125 1.875 -3.453125 Z M 2.359375 -1.5625 L 2 -1.546875 C 1.695312 -1.546875 1.488281 -1.492188 1.375 -1.390625 C 1.257812 -1.296875 1.203125 -1.164062 1.203125 -1 C 1.203125 -0.863281 1.242188 -0.765625 1.328125 -0.703125 C 1.410156 -0.640625 1.519531 -0.609375 1.65625 -0.609375 C 1.851562 -0.609375 2.019531 -0.664062 2.15625 -0.78125 C 2.289062 -0.90625 2.359375 -1.070312 2.359375 -1.28125 Z M 2.359375 -1.5625 "/></g></g></g><g fill="#000000" fill-opacity="1"><g transform="translate(60.975088, 12.045542)"><g><path d="M 1.546875 0.0625 C 1.171875 0.0625 0.863281 -0.0820312 0.625 -0.375 C 0.394531 -0.675781 0.28125 -1.113281 0.28125 -1.6875 C 0.28125 -2.257812 0.398438 -2.691406 0.640625 -2.984375 C 0.878906 -3.285156 1.191406 -3.4375 1.578125 -3.4375 C 1.816406 -3.4375 2.015625 -3.390625 2.171875 -3.296875 C 2.328125 -3.203125 2.453125 -3.082031 2.546875 -2.9375 L 2.578125 -2.9375 C 2.566406 -3.007812 2.550781 -3.109375 2.53125 -3.234375 C 2.519531 -3.359375 2.515625 -3.488281 2.515625 -3.625 L 2.515625 -4.703125 L 3.4375 -4.703125 L 3.4375 0 L 2.734375 0 L 2.546875 -0.4375 L 2.515625 -0.4375 C 2.421875 -0.300781 2.296875 -0.179688 2.140625 -0.078125 C 1.992188 0.015625 1.796875 0.0625 1.546875 0.0625 Z M 1.875 -0.671875 C 2.125 -0.671875 2.300781 -0.742188 2.40625 -0.890625 C 2.507812 -1.046875 2.566406 -1.273438 2.578125 -1.578125 L 2.578125 -1.671875 C 2.578125 -2.003906 2.523438 -2.253906 2.421875 -2.421875 C 2.316406 -2.597656 2.128906 -2.6875 1.859375 -2.6875 C 1.660156 -2.6875 1.503906 -2.597656 1.390625 -2.421875 C 1.273438 -2.253906 1.21875 -2.003906 1.21875 -1.671875 C 1.21875 -1.335938 1.273438 -1.085938 1.390625 -0.921875 C 1.503906 -0.753906 1.664062 -0.671875 1.875 -0.671875 Z M 1.875 -0.671875 "/></g></g></g><g fill="#000000" fill-opacity="1"><g transform="translate(33.749996, 20.295512)"><g><path d="M 1.96875 -4.421875 C 2.539062 -4.421875 2.957031 -4.296875 3.21875 -4.046875 C 3.476562 -3.804688 3.609375 -3.46875 3.609375 -3.03125 C 3.609375 -2.769531 3.550781 -2.53125 3.4375 -2.3125 C 3.332031 -2.09375 3.15625 -1.914062 2.90625 -1.78125 C 2.65625 -1.644531 2.316406 -1.578125 1.890625 -1.578125 L 1.484375 -1.578125 L 1.484375 0 L 0.5625 0 L 0.5625 -4.421875 Z M 1.921875 -3.65625 L 1.484375 -3.65625 L 1.484375 -2.34375 L 1.796875 -2.34375 C 2.066406 -2.34375 2.273438 -2.394531 2.421875 -2.5 C 2.578125 -2.601562 2.65625 -2.769531 2.65625 -3 C 2.65625 -3.4375 2.410156 -3.65625 1.921875 -3.65625 Z M 1.921875 -3.65625 "/></g></g></g><g fill="#000000" fill-opacity="1"><g transform="translate(37.635761, 20.295512)"><g><path d="M 4.21875 -2.25 C 4.21875 -1.5 4.003906 -0.9375 3.578125 -0.5625 C 3.148438 -0.1875 2.5625 0 1.8125 0 L 0.5625 0 L 0.5625 -4.421875 L 1.9375 -4.421875 C 2.40625 -4.421875 2.804688 -4.335938 3.140625 -4.171875 C 3.484375 -4.003906 3.75 -3.757812 3.9375 -3.4375 C 4.125 -3.113281 4.21875 -2.71875 4.21875 -2.25 Z M 3.25 -2.234375 C 3.25 -2.710938 3.140625 -3.066406 2.921875 -3.296875 C 2.710938 -3.535156 2.40625 -3.65625 2 -3.65625 L 1.484375 -3.65625 L 1.484375 -0.765625 L 1.890625 -0.765625 C 2.796875 -0.765625 3.25 -1.253906 3.25 -2.234375 Z M 3.25 -2.234375 "/></g></g></g><g fill="#000000" fill-opacity="1"><g transform="translate(42.214529, 20.295512)"><g><path d="M 1.484375 0 L 0.5625 0 L 0.5625 -4.421875 L 3.09375 -4.421875 L 3.09375 -3.65625 L 1.484375 -3.65625 L 1.484375 -2.515625 L 2.96875 -2.515625 L 2.96875 -1.75 L 1.484375 -1.75 Z M 1.484375 0 "/></g></g></g></svg>