<svg xmlns="http://www.w3.org/2000/svg" xmlns:xlink="http://www.w3.org/1999/xlink" width="90" zoomAndPan="magnify" viewBox="0 0 67.5 30.000001" height="40" preserveAspectRatio="xMidYMid meet" version="1.0"><defs><g/><clipPath id="82c28f313b"><path d="M 2.308594 0 L 65.191406 0 L 65.191406 22.667969 L 2.308594 22.667969 Z M 2.308594 0 " clip-rule="nonzero"/></clipPath></defs><path fill="#e00a14" d="M 17.503906 5.835938 L 19.972656 5.835938 L 19.972656 14.738281 L 24.292969 14.738281 L 24.292969 16.824219 L 17.503906 16.824219 Z M 17.503906 5.835938 " fill-opacity="1" fill-rule="nonzero"/><path fill="#e00a14" d="M 25.742188 5.835938 L 28.207031 5.835938 L 28.207031 16.824219 L 25.742188 16.824219 Z M 25.742188 5.835938 " fill-opacity="1" fill-rule="nonzero"/><path fill="#e00a14" d="M 32.898438 16.824219 L 29.417969 5.835938 L 32.109375 5.835938 L 33.429688 10.484375 C 33.800781 11.789062 34.140625 13.042969 34.398438 14.410156 L 34.445312 14.410156 C 34.71875 13.089844 35.058594 11.789062 35.429688 10.53125 L 36.816406 5.835938 L 39.425781 5.835938 L 35.769531 16.824219 Z M 32.898438 16.824219 " fill-opacity="1" fill-rule="nonzero"/><path fill="#e00a14" d="M 47.050781 12.179688 L 43.054688 12.179688 L 43.054688 14.785156 L 47.519531 14.785156 L 47.519531 16.824219 L 40.585938 16.824219 L 40.585938 5.835938 L 47.292969 5.835938 L 47.292969 7.875 L 43.054688 7.875 L 43.054688 10.15625 L 47.050781 10.15625 Z M 47.050781 12.179688 " fill-opacity="1" fill-rule="nonzero"/><g clip-path="url(#82c28f313b)"><path fill="#e00a14" d="M 60.152344 22.664062 L 7.347656 22.664062 C 4.585938 22.664062 2.339844 20.390625 2.339844 17.597656 L 2.339844 5.066406 C 2.339844 2.269531 4.585938 0 7.347656 0 L 60.152344 0 C 62.914062 0 65.160156 2.269531 65.160156 5.066406 L 65.160156 17.597656 C 65.160156 20.390625 62.914062 22.664062 60.152344 22.664062 Z M 7.347656 0.753906 C 5 0.753906 3.085938 2.6875 3.085938 5.066406 L 3.085938 17.597656 C 3.085938 19.972656 5 21.90625 7.347656 21.90625 L 60.152344 21.90625 C 62.5 21.90625 64.414062 19.972656 64.414062 17.597656 L 64.414062 5.066406 C 64.414062 2.6875 62.5 0.753906 60.152344 0.753906 Z M 7.347656 0.753906 " fill-opacity="1" fill-rule="nonzero"/></g><path fill="#e00a14" d="M 13.464844 9.117188 C 13.757812 9.410156 13.980469 9.75 14.136719 10.132812 C 14.292969 10.515625 14.371094 10.914062 14.371094 11.332031 C 14.371094 11.746094 14.292969 12.144531 14.136719 12.527344 C 13.980469 12.910156 13.757812 13.25 13.464844 13.542969 C 13.175781 13.835938 12.839844 14.0625 12.460938 14.222656 C 12.082031 14.378906 11.6875 14.460938 11.277344 14.460938 C 10.867188 14.460938 10.472656 14.378906 10.09375 14.222656 C 9.714844 14.0625 9.378906 13.835938 9.089844 13.542969 C 8.800781 13.25 8.578125 12.910156 8.417969 12.527344 C 8.261719 12.144531 8.183594 11.746094 8.183594 11.332031 C 8.183594 10.914062 8.261719 10.515625 8.417969 10.132812 C 8.578125 9.75 8.800781 9.410156 9.089844 9.117188 C 9.378906 8.824219 9.714844 8.597656 10.09375 8.441406 C 10.472656 8.28125 10.867188 8.203125 11.277344 8.203125 C 11.6875 8.203125 12.082031 8.28125 12.460938 8.441406 C 12.839844 8.597656 13.175781 8.824219 13.464844 9.117188 Z M 13.464844 9.117188 " fill-opacity="1" fill-rule="nonzero"/><g fill="#000000" fill-opacity="1"><g transform="translate(3.78696, 26.817163)"><g><path d="M 1.5625 -3.765625 C 2.082031 -3.765625 2.460938 -3.671875 2.703125 -3.484375 C 2.941406 -3.296875 3.0625 -3.015625 3.0625 -2.640625 C 3.0625 -2.460938 3.03125 -2.304688 2.96875 -2.171875 C 2.90625 -2.046875 2.816406 -1.9375 2.703125 -1.84375 C 2.597656 -1.757812 2.488281 -1.691406 2.375 -1.640625 L 3.46875 0 L 2.59375 0 L 1.703125 -1.4375 L 1.265625 -1.4375 L 1.265625 0 L 0.46875 0 L 0.46875 -3.765625 Z M 1.515625 -3.109375 L 1.265625 -3.109375 L 1.265625 -2.09375 L 1.53125 -2.09375 C 1.789062 -2.09375 1.976562 -2.132812 2.09375 -2.21875 C 2.207031 -2.3125 2.265625 -2.441406 2.265625 -2.609375 C 2.265625 -2.785156 2.203125 -2.910156 2.078125 -2.984375 C 1.953125 -3.066406 1.765625 -3.109375 1.515625 -3.109375 Z M 1.515625 -3.109375 "/></g></g></g><g fill="#000000" fill-opacity="1"><g transform="translate(7.265465, 26.817163)"><g><path d="M 1.59375 -2.921875 C 1.988281 -2.921875 2.300781 -2.804688 2.53125 -2.578125 C 2.769531 -2.359375 2.890625 -2.039062 2.890625 -1.625 L 2.890625 -1.25 L 1.03125 -1.25 C 1.039062 -1.019531 1.109375 -0.84375 1.234375 -0.71875 C 1.359375 -0.59375 1.53125 -0.53125 1.75 -0.53125 C 1.925781 -0.53125 2.09375 -0.546875 2.25 -0.578125 C 2.40625 -0.617188 2.5625 -0.679688 2.71875 -0.765625 L 2.71875 -0.15625 C 2.570312 -0.0820312 2.421875 -0.03125 2.265625 0 C 2.117188 0.03125 1.9375 0.046875 1.71875 0.046875 C 1.425781 0.046875 1.164062 -0.00390625 0.9375 -0.109375 C 0.71875 -0.210938 0.546875 -0.375 0.421875 -0.59375 C 0.296875 -0.8125 0.234375 -1.085938 0.234375 -1.421875 C 0.234375 -1.753906 0.289062 -2.03125 0.40625 -2.25 C 0.519531 -2.476562 0.675781 -2.644531 0.875 -2.75 C 1.082031 -2.863281 1.320312 -2.921875 1.59375 -2.921875 Z M 1.59375 -2.375 C 1.445312 -2.375 1.320312 -2.320312 1.21875 -2.21875 C 1.125 -2.125 1.066406 -1.972656 1.046875 -1.765625 L 2.140625 -1.765625 C 2.140625 -1.929688 2.09375 -2.070312 2 -2.1875 C 1.914062 -2.3125 1.78125 -2.375 1.59375 -2.375 Z M 1.59375 -2.375 "/></g></g></g><g fill="#000000" fill-opacity="1"><g transform="translate(10.380307, 26.817163)"><g><path d="M 1.59375 -2.9375 C 1.976562 -2.9375 2.269531 -2.851562 2.46875 -2.6875 C 2.675781 -2.519531 2.78125 -2.265625 2.78125 -1.921875 L 2.78125 0 L 2.234375 0 L 2.078125 -0.390625 L 2.0625 -0.390625 C 1.9375 -0.234375 1.804688 -0.117188 1.671875 -0.046875 C 1.535156 0.015625 1.347656 0.046875 1.109375 0.046875 C 0.859375 0.046875 0.644531 -0.0234375 0.46875 -0.171875 C 0.300781 -0.316406 0.21875 -0.546875 0.21875 -0.859375 C 0.21875 -1.160156 0.320312 -1.382812 0.53125 -1.53125 C 0.75 -1.675781 1.070312 -1.757812 1.5 -1.78125 L 2 -1.796875 L 2 -1.921875 C 2 -2.066406 1.957031 -2.175781 1.875 -2.25 C 1.800781 -2.320312 1.695312 -2.359375 1.5625 -2.359375 C 1.414062 -2.359375 1.273438 -2.335938 1.140625 -2.296875 C 1.015625 -2.253906 0.882812 -2.203125 0.75 -2.140625 L 0.484375 -2.671875 C 0.640625 -2.753906 0.8125 -2.816406 1 -2.859375 C 1.1875 -2.910156 1.382812 -2.9375 1.59375 -2.9375 Z M 2 -1.328125 L 1.703125 -1.328125 C 1.453125 -1.316406 1.273438 -1.269531 1.171875 -1.1875 C 1.078125 -1.101562 1.03125 -0.992188 1.03125 -0.859375 C 1.03125 -0.734375 1.0625 -0.644531 1.125 -0.59375 C 1.195312 -0.539062 1.289062 -0.515625 1.40625 -0.515625 C 1.570312 -0.515625 1.710938 -0.566406 1.828125 -0.671875 C 1.941406 -0.773438 2 -0.914062 2 -1.09375 Z M 2 -1.328125 "/></g></g></g><g fill="#000000" fill-opacity="1"><g transform="translate(13.563658, 26.817163)"><g><path d="M 1.328125 0.046875 C 1.003906 0.046875 0.738281 -0.078125 0.53125 -0.328125 C 0.332031 -0.578125 0.234375 -0.945312 0.234375 -1.4375 C 0.234375 -1.925781 0.332031 -2.296875 0.53125 -2.546875 C 0.738281 -2.796875 1.007812 -2.921875 1.34375 -2.921875 C 1.550781 -2.921875 1.71875 -2.878906 1.84375 -2.796875 C 1.976562 -2.722656 2.085938 -2.625 2.171875 -2.5 L 2.203125 -2.5 C 2.191406 -2.5625 2.175781 -2.644531 2.15625 -2.75 C 2.144531 -2.851562 2.140625 -2.960938 2.140625 -3.078125 L 2.140625 -4 L 2.921875 -4 L 2.921875 0 L 2.328125 0 L 2.171875 -0.375 L 2.140625 -0.375 C 2.054688 -0.25 1.945312 -0.144531 1.8125 -0.0625 C 1.6875 0.0078125 1.523438 0.046875 1.328125 0.046875 Z M 1.59375 -0.578125 C 1.8125 -0.578125 1.960938 -0.640625 2.046875 -0.765625 C 2.140625 -0.890625 2.1875 -1.082031 2.1875 -1.34375 L 2.1875 -1.421875 C 2.1875 -1.703125 2.144531 -1.914062 2.0625 -2.0625 C 1.976562 -2.21875 1.816406 -2.296875 1.578125 -2.296875 C 1.410156 -2.296875 1.273438 -2.21875 1.171875 -2.0625 C 1.078125 -1.914062 1.03125 -1.703125 1.03125 -1.421875 C 1.03125 -1.140625 1.078125 -0.925781 1.171875 -0.78125 C 1.273438 -0.644531 1.414062 -0.578125 1.59375 -0.578125 Z M 1.59375 -0.578125 "/></g></g></g><g fill="#000000" fill-opacity="1"><g transform="translate(16.899862, 26.817163)"><g/></g></g><g fill="#000000" fill-opacity="1"><g transform="translate(18.268931, 26.817163)"><g><path d="M 3.890625 -1.890625 C 3.890625 -1.492188 3.820312 -1.148438 3.6875 -0.859375 C 3.5625 -0.578125 3.363281 -0.351562 3.09375 -0.1875 C 2.832031 -0.03125 2.5 0.046875 2.09375 0.046875 C 1.6875 0.046875 1.347656 -0.03125 1.078125 -0.1875 C 0.816406 -0.351562 0.625 -0.582031 0.5 -0.875 C 0.375 -1.164062 0.3125 -1.503906 0.3125 -1.890625 C 0.3125 -2.273438 0.375 -2.613281 0.5 -2.90625 C 0.625 -3.195312 0.816406 -3.421875 1.078125 -3.578125 C 1.347656 -3.734375 1.6875 -3.8125 2.09375 -3.8125 C 2.507812 -3.8125 2.847656 -3.734375 3.109375 -3.578125 C 3.367188 -3.421875 3.5625 -3.195312 3.6875 -2.90625 C 3.820312 -2.613281 3.890625 -2.273438 3.890625 -1.890625 Z M 1.140625 -1.890625 C 1.140625 -1.492188 1.210938 -1.179688 1.359375 -0.953125 C 1.515625 -0.722656 1.757812 -0.609375 2.09375 -0.609375 C 2.4375 -0.609375 2.679688 -0.722656 2.828125 -0.953125 C 2.972656 -1.179688 3.046875 -1.492188 3.046875 -1.890625 C 3.046875 -2.273438 2.972656 -2.582031 2.828125 -2.8125 C 2.679688 -3.039062 2.4375 -3.15625 2.09375 -3.15625 C 1.757812 -3.15625 1.515625 -3.039062 1.359375 -2.8125 C 1.210938 -2.582031 1.140625 -2.273438 1.140625 -1.890625 Z M 1.140625 -1.890625 "/></g></g></g><g fill="#000000" fill-opacity="1"><g transform="translate(22.46421, 26.817163)"><g><path d="M 2.046875 -2.921875 C 2.347656 -2.921875 2.59375 -2.835938 2.78125 -2.671875 C 2.96875 -2.503906 3.0625 -2.238281 3.0625 -1.875 L 3.0625 0 L 2.28125 0 L 2.28125 -1.6875 C 2.28125 -1.882812 2.242188 -2.035156 2.171875 -2.140625 C 2.097656 -2.242188 1.976562 -2.296875 1.8125 -2.296875 C 1.570312 -2.296875 1.410156 -2.210938 1.328125 -2.046875 C 1.242188 -1.890625 1.203125 -1.660156 1.203125 -1.359375 L 1.203125 0 L 0.40625 0 L 0.40625 -2.875 L 1.015625 -2.875 L 1.109375 -2.5 L 1.15625 -2.5 C 1.25 -2.65625 1.375 -2.765625 1.53125 -2.828125 C 1.695312 -2.890625 1.867188 -2.921875 2.046875 -2.921875 Z M 2.046875 -2.921875 "/></g></g></g><g fill="#000000" fill-opacity="1"><g transform="translate(25.926897, 26.817163)"><g><path d="M 1.203125 0 L 0.40625 0 L 0.40625 -4 L 1.203125 -4 Z M 1.203125 0 "/></g></g></g><g fill="#000000" fill-opacity="1"><g transform="translate(27.534383, 26.817163)"><g><path d="M 0.8125 -4 C 0.925781 -4 1.023438 -3.972656 1.109375 -3.921875 C 1.191406 -3.867188 1.234375 -3.769531 1.234375 -3.625 C 1.234375 -3.476562 1.191406 -3.375 1.109375 -3.3125 C 1.023438 -3.257812 0.925781 -3.234375 0.8125 -3.234375 C 0.6875 -3.234375 0.582031 -3.257812 0.5 -3.3125 C 0.414062 -3.375 0.375 -3.476562 0.375 -3.625 C 0.375 -3.769531 0.414062 -3.867188 0.5 -3.921875 C 0.582031 -3.972656 0.6875 -4 0.8125 -4 Z M 1.203125 -2.875 L 1.203125 0 L 0.40625 0 L 0.40625 -2.875 Z M 1.203125 -2.875 "/></g></g></g><g fill="#000000" fill-opacity="1"><g transform="translate(29.141869, 26.817163)"><g><path d="M 2.046875 -2.921875 C 2.347656 -2.921875 2.59375 -2.835938 2.78125 -2.671875 C 2.96875 -2.503906 3.0625 -2.238281 3.0625 -1.875 L 3.0625 0 L 2.28125 0 L 2.28125 -1.6875 C 2.28125 -1.882812 2.242188 -2.035156 2.171875 -2.140625 C 2.097656 -2.242188 1.976562 -2.296875 1.8125 -2.296875 C 1.570312 -2.296875 1.410156 -2.210938 1.328125 -2.046875 C 1.242188 -1.890625 1.203125 -1.660156 1.203125 -1.359375 L 1.203125 0 L 0.40625 0 L 0.40625 -2.875 L 1.015625 -2.875 L 1.109375 -2.5 L 1.15625 -2.5 C 1.25 -2.65625 1.375 -2.765625 1.53125 -2.828125 C 1.695312 -2.890625 1.867188 -2.921875 2.046875 -2.921875 Z M 2.046875 -2.921875 "/></g></g></g><g fill="#000000" fill-opacity="1"><g transform="translate(32.604556, 26.817163)"><g><path d="M 1.59375 -2.921875 C 1.988281 -2.921875 2.300781 -2.804688 2.53125 -2.578125 C 2.769531 -2.359375 2.890625 -2.039062 2.890625 -1.625 L 2.890625 -1.25 L 1.03125 -1.25 C 1.039062 -1.019531 1.109375 -0.84375 1.234375 -0.71875 C 1.359375 -0.59375 1.53125 -0.53125 1.75 -0.53125 C 1.925781 -0.53125 2.09375 -0.546875 2.25 -0.578125 C 2.40625 -0.617188 2.5625 -0.679688 2.71875 -0.765625 L 2.71875 -0.15625 C 2.570312 -0.0820312 2.421875 -0.03125 2.265625 0 C 2.117188 0.03125 1.9375 0.046875 1.71875 0.046875 C 1.425781 0.046875 1.164062 -0.00390625 0.9375 -0.109375 C 0.71875 -0.210938 0.546875 -0.375 0.421875 -0.59375 C 0.296875 -0.8125 0.234375 -1.085938 0.234375 -1.421875 C 0.234375 -1.753906 0.289062 -2.03125 0.40625 -2.25 C 0.519531 -2.476562 0.675781 -2.644531 0.875 -2.75 C 1.082031 -2.863281 1.320312 -2.921875 1.59375 -2.921875 Z M 1.59375 -2.375 C 1.445312 -2.375 1.320312 -2.320312 1.21875 -2.21875 C 1.125 -2.125 1.066406 -1.972656 1.046875 -1.765625 L 2.140625 -1.765625 C 2.140625 -1.929688 2.09375 -2.070312 2 -2.1875 C 1.914062 -2.3125 1.78125 -2.375 1.59375 -2.375 Z M 1.59375 -2.375 "/></g></g></g><g fill="#000000" fill-opacity="1"><g transform="translate(35.719399, 26.817163)"><g/></g></g><g fill="#000000" fill-opacity="1"><g transform="translate(37.088468, 26.817163)"><g><path d="M 3.015625 -1.4375 C 3.015625 -0.96875 2.890625 -0.601562 2.640625 -0.34375 C 2.390625 -0.0820312 2.050781 0.046875 1.625 0.046875 C 1.351562 0.046875 1.113281 -0.0078125 0.90625 -0.125 C 0.695312 -0.238281 0.53125 -0.40625 0.40625 -0.625 C 0.289062 -0.851562 0.234375 -1.125 0.234375 -1.4375 C 0.234375 -1.914062 0.359375 -2.28125 0.609375 -2.53125 C 0.859375 -2.789062 1.203125 -2.921875 1.640625 -2.921875 C 1.910156 -2.921875 2.148438 -2.863281 2.359375 -2.75 C 2.566406 -2.632812 2.726562 -2.46875 2.84375 -2.25 C 2.957031 -2.03125 3.015625 -1.757812 3.015625 -1.4375 Z M 1.03125 -1.4375 C 1.03125 -1.15625 1.078125 -0.941406 1.171875 -0.796875 C 1.265625 -0.648438 1.414062 -0.578125 1.625 -0.578125 C 1.832031 -0.578125 1.984375 -0.648438 2.078125 -0.796875 C 2.171875 -0.941406 2.21875 -1.15625 2.21875 -1.4375 C 2.21875 -1.726562 2.171875 -1.941406 2.078125 -2.078125 C 1.984375 -2.222656 1.832031 -2.296875 1.625 -2.296875 C 1.414062 -2.296875 1.265625 -2.222656 1.171875 -2.078125 C 1.078125 -1.941406 1.03125 -1.726562 1.03125 -1.4375 Z M 1.03125 -1.4375 "/></g></g></g><g fill="#000000" fill-opacity="1"><g transform="translate(40.350879, 26.817163)"><g><path d="M 2.046875 -2.921875 C 2.347656 -2.921875 2.59375 -2.835938 2.78125 -2.671875 C 2.96875 -2.503906 3.0625 -2.238281 3.0625 -1.875 L 3.0625 0 L 2.28125 0 L 2.28125 -1.6875 C 2.28125 -1.882812 2.242188 -2.035156 2.171875 -2.140625 C 2.097656 -2.242188 1.976562 -2.296875 1.8125 -2.296875 C 1.570312 -2.296875 1.410156 -2.210938 1.328125 -2.046875 C 1.242188 -1.890625 1.203125 -1.660156 1.203125 -1.359375 L 1.203125 0 L 0.40625 0 L 0.40625 -2.875 L 1.015625 -2.875 L 1.109375 -2.5 L 1.15625 -2.5 C 1.25 -2.65625 1.375 -2.765625 1.53125 -2.828125 C 1.695312 -2.890625 1.867188 -2.921875 2.046875 -2.921875 Z M 2.046875 -2.921875 "/></g></g></g><g fill="#000000" fill-opacity="1"><g transform="translate(43.813566, 26.817163)"><g/></g></g><g fill="#000000" fill-opacity="1"><g transform="translate(45.182636, 26.817163)"><g><path d="M 1.90625 -2.109375 L 3.390625 -2.109375 L 3.390625 -0.15625 C 3.191406 -0.09375 2.984375 -0.0390625 2.765625 0 C 2.554688 0.03125 2.316406 0.046875 2.046875 0.046875 C 1.492188 0.046875 1.066406 -0.113281 0.765625 -0.4375 C 0.460938 -0.769531 0.3125 -1.253906 0.3125 -1.890625 C 0.3125 -2.273438 0.382812 -2.613281 0.53125 -2.90625 C 0.6875 -3.195312 0.910156 -3.421875 1.203125 -3.578125 C 1.492188 -3.734375 1.847656 -3.8125 2.265625 -3.8125 C 2.460938 -3.8125 2.660156 -3.789062 2.859375 -3.75 C 3.054688 -3.707031 3.234375 -3.648438 3.390625 -3.578125 L 3.125 -2.9375 C 3.007812 -3 2.875 -3.050781 2.71875 -3.09375 C 2.570312 -3.132812 2.421875 -3.15625 2.265625 -3.15625 C 2.035156 -3.15625 1.832031 -3.097656 1.65625 -2.984375 C 1.488281 -2.878906 1.359375 -2.726562 1.265625 -2.53125 C 1.171875 -2.34375 1.125 -2.125 1.125 -1.875 C 1.125 -1.625 1.15625 -1.40625 1.21875 -1.21875 C 1.289062 -1.03125 1.398438 -0.878906 1.546875 -0.765625 C 1.691406 -0.660156 1.878906 -0.609375 2.109375 -0.609375 C 2.222656 -0.609375 2.316406 -0.613281 2.390625 -0.625 C 2.460938 -0.632812 2.535156 -0.644531 2.609375 -0.65625 L 2.609375 -1.453125 L 1.90625 -1.453125 Z M 1.90625 -2.109375 "/></g></g></g><g fill="#000000" fill-opacity="1"><g transform="translate(48.99845, 26.817163)"><g><path d="M 0.8125 -4 C 0.925781 -4 1.023438 -3.972656 1.109375 -3.921875 C 1.191406 -3.867188 1.234375 -3.769531 1.234375 -3.625 C 1.234375 -3.476562 1.191406 -3.375 1.109375 -3.3125 C 1.023438 -3.257812 0.925781 -3.234375 0.8125 -3.234375 C 0.6875 -3.234375 0.582031 -3.257812 0.5 -3.3125 C 0.414062 -3.375 0.375 -3.476562 0.375 -3.625 C 0.375 -3.769531 0.414062 -3.867188 0.5 -3.921875 C 0.582031 -3.972656 0.6875 -4 0.8125 -4 Z M 1.203125 -2.875 L 1.203125 0 L 0.40625 0 L 0.40625 -2.875 Z M 1.203125 -2.875 "/></g></g></g><g fill="#000000" fill-opacity="1"><g transform="translate(50.605936, 26.817163)"><g><path d="M 1.625 -0.578125 C 1.707031 -0.578125 1.789062 -0.582031 1.875 -0.59375 C 1.957031 -0.613281 2.035156 -0.632812 2.109375 -0.65625 L 2.109375 -0.078125 C 2.023438 -0.0351562 1.921875 -0.00390625 1.796875 0.015625 C 1.671875 0.0351562 1.535156 0.046875 1.390625 0.046875 C 1.222656 0.046875 1.070312 0.0195312 0.9375 -0.03125 C 0.800781 -0.0820312 0.691406 -0.175781 0.609375 -0.3125 C 0.535156 -0.457031 0.5 -0.65625 0.5 -0.90625 L 0.5 -2.28125 L 0.125 -2.28125 L 0.125 -2.609375 L 0.546875 -2.875 L 0.78125 -3.484375 L 1.28125 -3.484375 L 1.28125 -2.875 L 2.078125 -2.875 L 2.078125 -2.28125 L 1.28125 -2.28125 L 1.28125 -0.90625 C 1.28125 -0.789062 1.3125 -0.707031 1.375 -0.65625 C 1.4375 -0.601562 1.519531 -0.578125 1.625 -0.578125 Z M 1.625 -0.578125 "/></g></g></g><g fill="#000000" fill-opacity="1"><g transform="translate(52.893308, 26.817163)"><g><path d="M 3.546875 0 L 2.765625 0 L 2.765625 -1.625 L 1.265625 -1.625 L 1.265625 0 L 0.46875 0 L 0.46875 -3.765625 L 1.265625 -3.765625 L 1.265625 -2.28125 L 2.765625 -2.28125 L 2.765625 -3.765625 L 3.546875 -3.765625 Z M 3.546875 0 "/></g></g></g><g fill="#000000" fill-opacity="1"><g transform="translate(56.9252, 26.817163)"><g><path d="M 3.046875 -2.875 L 3.046875 0 L 2.453125 0 L 2.34375 -0.375 L 2.296875 -0.375 C 2.210938 -0.21875 2.085938 -0.109375 1.921875 -0.046875 C 1.765625 0.015625 1.597656 0.046875 1.421875 0.046875 C 1.109375 0.046875 0.859375 -0.0351562 0.671875 -0.203125 C 0.484375 -0.367188 0.390625 -0.632812 0.390625 -1 L 0.390625 -2.875 L 1.171875 -2.875 L 1.171875 -1.203125 C 1.171875 -0.992188 1.207031 -0.835938 1.28125 -0.734375 C 1.363281 -0.628906 1.484375 -0.578125 1.640625 -0.578125 C 1.878906 -0.578125 2.039062 -0.65625 2.125 -0.8125 C 2.21875 -0.976562 2.265625 -1.210938 2.265625 -1.515625 L 2.265625 -2.875 Z M 3.046875 -2.875 "/></g></g></g><g fill="#000000" fill-opacity="1"><g transform="translate(60.387887, 26.817163)"><g><path d="M 1.203125 -4 L 1.203125 -3.0625 C 1.203125 -2.957031 1.195312 -2.851562 1.1875 -2.75 C 1.175781 -2.644531 1.164062 -2.5625 1.15625 -2.5 L 1.203125 -2.5 C 1.273438 -2.625 1.375 -2.722656 1.5 -2.796875 C 1.632812 -2.878906 1.804688 -2.921875 2.015625 -2.921875 C 2.335938 -2.921875 2.597656 -2.796875 2.796875 -2.546875 C 2.992188 -2.296875 3.09375 -1.925781 3.09375 -1.4375 C 3.09375 -0.945312 2.988281 -0.578125 2.78125 -0.328125 C 2.582031 -0.078125 2.316406 0.046875 1.984375 0.046875 C 1.773438 0.046875 1.609375 0.0078125 1.484375 -0.0625 C 1.367188 -0.132812 1.273438 -0.21875 1.203125 -0.3125 L 1.140625 -0.3125 L 1.015625 0 L 0.40625 0 L 0.40625 -4 Z M 1.765625 -2.296875 C 1.554688 -2.296875 1.410156 -2.234375 1.328125 -2.109375 C 1.242188 -1.984375 1.203125 -1.789062 1.203125 -1.53125 L 1.203125 -1.453125 C 1.203125 -1.171875 1.238281 -0.953125 1.3125 -0.796875 C 1.394531 -0.648438 1.546875 -0.578125 1.765625 -0.578125 C 1.929688 -0.578125 2.0625 -0.648438 2.15625 -0.796875 C 2.25 -0.953125 2.296875 -1.171875 2.296875 -1.453125 C 2.296875 -1.734375 2.242188 -1.941406 2.140625 -2.078125 C 2.046875 -2.222656 1.921875 -2.296875 1.765625 -2.296875 Z M 1.765625 -2.296875 "/></g></g></g></svg>